# xmcd database file
#
# Track frame offsets:
# 150
# 9447
# 19986
# 29321
# 40640
# 52883
# 62065
# 74451
# 84798
# 93350
# 103363
# 113692
#
# Disc length: 1655 seconds
#
# Revision: 0
# Processed by: cddbd v1.5.2PL0 Copyright (c) Steve Scherf et al.
# Submitted via: CD-Runner 2006.50
#
DISCID=8e06750c
DTITLE=Bill Haley and His Comets - Haley's Juke Box
DYEAR=1900
DGENRE=Rock 'n' Roll
TTITLE0=Singing The Blues
TTITLE1=Candy Kisses
TTITLE2=No Letter Today
TTITLE3=This Is The Thanks I Get (For Loving You)
TTITLE4=Bouquet Of Roses
TTITLE5=There's A New Moon Over My Shoulder
TTITLE6=Cold, Cold Heart
TTITLE7=The Wild Side Of Life
TTITLE8=Any Time
TTITLE9=Afraid
TTITLE10=I Don't Hurt Anymore
TTITLE11=Detour
EXTD=
EXTT0=
EXTT1=
EXTT2=
EXTT3=
EXTT4=
EXTT5=
EXTT6=
EXTT7=
EXTT8=
EXTT9=
EXTT10=
EXTT11=
PLAYORDER=
